<svg xmlns="http://www.w3.org/2000/svg" width="1024" height="1024" viewBox="0 0 1024 1024">
  <defs>
    <linearGradient id="hull" x1="0" x2="1" y1="0" y2="1">
      <stop offset="0" stop-color="#d9c08a"/>
      <stop offset="0.42" stop-color="#8b7652"/>
      <stop offset="1" stop-color="#2e3d48"/>
    </linearGradient>
    <pattern id="panels" width="128" height="128" patternUnits="userSpaceOnUse">
      <rect width="128" height="128" fill="url(#hull)"/>
      <path d="M0 0H128M0 64H128M0 128H128M0 0V128M64 0V128M128 0V128" stroke="#f6e3ab" stroke-opacity=".18" stroke-width="4"/>
      <path d="M12 16h42v16H12zM76 78h36v18H76z" fill="#182735" fill-opacity=".34"/>
      <path d="M8 118h112" stroke="#63e6ff" stroke-opacity=".42" stroke-width="3"/>
    </pattern>
    <filter id="grain">
      <feTurbulence type="fractalNoise" baseFrequency=".8" numOctaves="3" stitchTiles="stitch"/>
      <feColorMatrix type="saturate" values="0"/>
      <feComponentTransfer>
        <feFuncA type="table" tableValues="0 .16"/>
      </feComponentTransfer>
    </filter>
  </defs>
  <rect width="1024" height="1024" fill="#1a2833"/>
  <rect x="32" y="32" width="960" height="960" rx="18" fill="url(#panels)"/>
  <g opacity=".7">
    <path d="M88 170h848M88 342h848M88 512h848M88 684h848M88 856h848" stroke="#0f1d27" stroke-width="12"/>
    <path d="M172 88v848M342 88v848M512 88v848M682 88v848M852 88v848" stroke="#0f1d27" stroke-width="10"/>
  </g>
  <g fill="#f0b94e" opacity=".78">
    <rect x="122" y="124" width="78" height="16"/>
    <rect x="824" y="122" width="78" height="16"/>
    <rect x="122" y="884" width="78" height="16"/>
    <rect x="824" y="884" width="78" height="16"/>
  </g>
  <g fill="#64e4ff" opacity=".74">
    <rect x="462" y="74" width="100" height="10"/>
    <rect x="462" y="940" width="100" height="10"/>
    <rect x="74" y="462" width="10" height="100"/>
    <rect x="940" y="462" width="10" height="100"/>
  </g>
  <rect width="1024" height="1024" filter="url(#grain)" opacity=".45"/>
</svg>
